<?xml version="1.0" encoding="UTF-8" standalone="no"?>
<svg
   xmlns:dc="http://purl.org/dc/elements/1.1/"
   xmlns:cc="http://creativecommons.org/ns#"
   xmlns:rdf="http://www.w3.org/1999/02/22-rdf-syntax-ns#"
   xmlns:svg="http://www.w3.org/2000/svg"
   xmlns="http://www.w3.org/2000/svg"
   xmlns:sodipodi="http://sodipodi.sourceforge.net/DTD/sodipodi-0.dtd"
   xmlns:inkscape="http://www.inkscape.org/namespaces/inkscape"
   viewBox="0 0 226.6 233.8"
   version="1.1"
   id="svg853"
   sodipodi:docname="clockColoured.svg"
   inkscape:version="1.0.1 (3bc2e813f5, 2020-09-07)">
  <metadata
     id="metadata859">
    <rdf:RDF>
      <cc:Work
         rdf:about="">
        <dc:format>image/svg+xml</dc:format>
        <dc:type
           rdf:resource="http://purl.org/dc/dcmitype/StillImage" />
        <dc:title></dc:title>
      </cc:Work>
    </rdf:RDF>
  </metadata>
  <defs
     id="defs857" />
  <sodipodi:namedview
     pagecolor="#ffffff"
     bordercolor="#666666"
     borderopacity="1"
     objecttolerance="10"
     gridtolerance="10"
     guidetolerance="10"
     inkscape:pageopacity="0"
     inkscape:pageshadow="2"
     inkscape:window-width="1920"
     inkscape:window-height="1001"
     id="namedview855"
     showgrid="false"
     inkscape:zoom="3.5500428"
     inkscape:cx="113.3"
     inkscape:cy="93.801687"
     inkscape:window-x="-9"
     inkscape:window-y="-9"
     inkscape:window-maximized="1"
     inkscape:current-layer="svg853" />
  <path
     d="M105.5 22.7V6.4h-5.9V4.3c.8 0 1.5-.1 2.2-.2.7-.1 1.4-.3 2-.7.6-.3 1.1-.8 1.5-1.3.4-.6.7-1.3.8-2.1h2.1v22.7h-2.7zM114.1 4.8c.3-1 .8-1.8 1.4-2.5.6-.7 1.4-1.3 2.4-1.7.9-.4 2-.6 3.2-.6 1 0 1.9.1 2.8.4.9.3 1.6.7 2.3 1.2.6.5 1.1 1.2 1.5 2 .4.8.6 1.7.6 2.8 0 1-.2 1.9-.5 2.7s-.7 1.5-1.2 2.1c-.5.6-1.1 1.2-1.8 1.6-.7.5-1.3 1-2 1.4-.7.4-1.4.8-2.1 1.3s-1.3.9-1.9 1.3c-.6.5-1.1 1-1.5 1.5s-.7 1.2-.8 1.9h11.6v2.4h-14.8c.1-1.3.3-2.5.7-3.4.4-.9.8-1.8 1.4-2.5s1.2-1.3 2-1.9c.7-.5 1.5-1 2.3-1.5 1-.6 1.8-1.1 2.5-1.6s1.3-1 1.8-1.5.8-1.1 1.1-1.7.4-1.3.4-2.1c0-.6-.1-1.2-.4-1.7-.2-.5-.5-.9-.9-1.3s-.9-.6-1.4-.8c-.5-.2-1.1-.3-1.7-.3-.8 0-1.5.2-2 .5-.6.3-1 .8-1.4 1.3-.4.5-.6 1.1-.8 1.8s-.2 1.3-.2 2H114c-.3-1-.2-2.1.1-3.1zM166.5 38.2V21.9h-5.9v-2.2c.8 0 1.5-.1 2.2-.2.7-.1 1.4-.3 2-.7.6-.3 1.1-.8 1.5-1.3.4-.6.7-1.3.8-2.1h2.1v22.7h-2.7zM198.9 59.2c.3-1 .8-1.8 1.4-2.5.6-.7 1.4-1.3 2.4-1.7.9-.4 2-.6 3.2-.6 1 0 1.9.1 2.8.4.9.3 1.6.7 2.3 1.2.6.5 1.1 1.2 1.5 2 .4.8.6 1.7.6 2.8 0 1-.2 1.9-.5 2.7s-.7 1.5-1.2 2.1c-.5.6-1.1 1.2-1.8 1.6-.7.5-1.3 1-2 1.4-.7.4-1.4.8-2.1 1.3s-1.3.9-1.9 1.3c-.6.5-1.1 1-1.5 1.5s-.7 1.2-.8 1.9h11.6V77H198c.1-1.3.3-2.5.7-3.4.4-.9.8-1.8 1.4-2.5s1.2-1.3 2-1.9c.7-.5 1.5-1 2.3-1.5 1-.6 1.8-1.1 2.5-1.6s1.3-1 1.8-1.5.8-1.1 1.1-1.7.4-1.3.4-2.1c0-.6-.1-1.2-.4-1.7-.2-.5-.5-.9-.9-1.3s-.9-.6-1.4-.8c-.5-.2-1.1-.3-1.7-.3-.8 0-1.5.2-2 .5-.6.3-1 .8-1.4 1.3-.4.5-.6 1.1-.8 1.8s-.2 1.3-.2 2h-2.7c-.2-1.1-.1-2.1.2-3.1zM217.6 115.1H218.5c.6 0 1.1-.1 1.6-.2s1-.4 1.4-.7c.4-.3.7-.7.9-1.2.2-.5.4-1 .4-1.6 0-1.2-.4-2.1-1.2-2.7-.8-.6-1.7-.9-2.9-.9-.7 0-1.4.1-1.9.4-.5.3-1 .6-1.3 1.1-.4.4-.6 1-.8 1.6-.2.6-.3 1.2-.3 1.9h-2.7c0-1.1.2-2.1.5-3s.8-1.7 1.3-2.3c.6-.6 1.3-1.1 2.2-1.5.9-.4 1.9-.5 3-.5 1 0 1.9.1 2.7.4s1.6.6 2.2 1.1c.6.5 1.1 1.1 1.5 1.9s.5 1.7.5 2.7c0 1-.3 1.9-.9 2.7-.6.8-1.3 1.4-2.2 1.8v.1c1.4.3 2.4 1 3.1 2 .7 1 1 2.2 1 3.6 0 1.1-.2 2.1-.6 3-.4.9-1 1.6-1.7 2.2s-1.5 1-2.5 1.3-2 .4-3 .4c-1.2 0-2.2-.2-3.1-.5-.9-.3-1.7-.8-2.4-1.4-.7-.6-1.2-1.4-1.5-2.3-.4-.9-.5-2-.5-3.1h2.7c0 1.5.5 2.7 1.3 3.6.8.9 2 1.4 3.6 1.4.7 0 1.3-.1 1.9-.3.6-.2 1.1-.5 1.6-.9s.8-.8 1.1-1.4.4-1.2.4-1.8c0-.7-.1-1.3-.4-1.9s-.6-1-1-1.4-.9-.7-1.5-.8-1.2-.3-1.9-.3c-.6 0-1.1 0-1.6.1V115c-.1.1 0 .1.1.1zM214.2 173.8v2.4h-3.1v5.3h-2.6v-5.3h-10v-2.6l10.3-14.8h2.2v15h3.2zm-5.6-11.1l-7.6 11.1h7.6v-11.1zM163.7 199.4l-1.2 6.5.1.1c.5-.6 1.1-1 1.9-1.2.8-.3 1.6-.4 2.3-.4 1 0 2 .2 2.8.5.9.3 1.7.8 2.3 1.5.7.7 1.2 1.5 1.6 2.4s.6 2.1.6 3.4c0 1-.2 1.9-.5 2.8-.3.9-.8 1.7-1.5 2.4s-1.5 1.3-2.5 1.7-2.1.6-3.5.6c-1 0-1.9-.1-2.8-.4s-1.6-.7-2.3-1.2-1.2-1.2-1.6-2c-.4-.8-.6-1.7-.6-2.8h2.7c0 .6.2 1.1.4 1.6s.6.9 1 1.3.9.7 1.5.9c.6.2 1.2.3 1.9.3.6 0 1.3-.1 1.8-.3.6-.2 1.1-.6 1.5-1 .4-.4.8-1 1-1.7.3-.7.4-1.5.4-2.4 0-.7-.1-1.4-.4-2.1s-.6-1.2-1-1.6-1-.8-1.6-1.1-1.3-.4-2.1-.4c-.9 0-1.7.2-2.4.6-.7.4-1.3.9-1.8 1.6l-2.3-.1 2.1-11.8h11.2v2.4h-9zM116.4 214.1c-.7-.6-1.5-.9-2.6-.9-1.2 0-2.1.3-2.8.8s-1.3 1.3-1.6 2.1-.7 1.8-.8 2.8c-.1 1-.2 1.9-.3 2.8l.1.1c.6-1 1.4-1.8 2.4-2.3.9-.5 2-.7 3.3-.7 1.1 0 2.1.2 2.9.6.9.4 1.6.9 2.2 1.6s1 1.4 1.4 2.3c.3.9.5 1.9.5 2.9 0 .8-.1 1.7-.4 2.6-.3.9-.7 1.7-1.3 2.4-.6.7-1.4 1.3-2.3 1.8-1 .5-2.2.7-3.6.7-1.7 0-3-.3-4.1-1s-1.8-1.6-2.4-2.6c-.6-1.1-.9-2.2-1.1-3.5-.2-1.3-.3-2.5-.3-3.7 0-1.6.1-3.1.4-4.5.3-1.5.7-2.8 1.4-3.9.6-1.1 1.5-2 2.6-2.7 1.1-.7 2.4-1 4-1 1.9 0 3.4.5 4.5 1.5s1.7 2.4 1.9 4.3h-2.7c-.2-1.1-.6-1.9-1.3-2.5zm-4.9 7.5c-.6.3-1.1.6-1.5 1.1-.4.5-.7 1-.9 1.6-.2.6-.3 1.3-.3 2s.1 1.4.3 2c.2.6.5 1.2.9 1.6.4.4.9.8 1.5 1.1.6.3 1.3.4 2 .4s1.4-.1 2-.4c.6-.3 1-.6 1.4-1.1.4-.5.7-1 .9-1.6s.3-1.2.3-1.9-.1-1.4-.3-2c-.2-.6-.5-1.2-.8-1.6-.4-.5-.9-.8-1.4-1.1s-1.2-.4-2-.4c-.9-.1-1.5.1-2.1.3zM64.9 203.4c-1 1.6-1.9 3.2-2.7 5-.8 1.8-1.4 3.6-1.9 5.5s-.8 3.7-.9 5.5h-3c.1-1.9.4-3.8.9-5.6.5-1.8 1.1-3.6 1.9-5.2s1.7-3.3 2.7-4.8c1-1.5 2.1-2.9 3.3-4.1H53.5V197h14.7v2.3c-1.2 1.2-2.3 2.5-3.3 4.1zM15.2 162.1c.4-.7.9-1.3 1.5-1.8s1.3-.9 2.1-1.1c.8-.3 1.6-.4 2.5-.4 1.2 0 2.3.2 3.2.5.9.3 1.6.8 2.1 1.3s.9 1.2 1.2 1.9c.3.7.4 1.4.4 2.1 0 1-.3 2-.8 2.8s-1.3 1.5-2.3 1.9c1.4.4 2.4 1.1 3 2.1s1 2.2 1 3.6c0 1.1-.2 2.1-.6 2.9-.4.9-.9 1.6-1.6 2.2s-1.5 1-2.4 1.3-1.9.4-2.9.4c-1.1 0-2.1-.1-3-.4-.9-.3-1.8-.7-2.4-1.3s-1.2-1.3-1.6-2.2c-.4-.9-.6-1.9-.6-3 0-1.3.3-2.5 1-3.5s1.7-1.7 2.9-2.2c-1-.4-1.7-1-2.3-1.9-.6-.9-.9-1.8-.9-2.8-.1-.9.1-1.7.5-2.4zm2.9 16.2c.9.8 2.1 1.2 3.5 1.2.7 0 1.3-.1 1.9-.3.6-.2 1.1-.5 1.5-.9s.7-.9 1-1.4.3-1.1.3-1.8c0-.6-.1-1.2-.4-1.7s-.6-1-1-1.4-.9-.7-1.5-.9c-.6-.2-1.2-.3-1.8-.3-.7 0-1.3.1-1.9.3-.6.2-1.1.5-1.5.9-.4.4-.8.8-1 1.4-.2.5-.4 1.1-.4 1.8-.1 1.2.3 2.3 1.3 3.1zm-.3-12c.2.5.5.8.9 1.1.4.3.8.5 1.3.7.5.1 1 .2 1.6.2 1.1 0 2-.3 2.7-1 .7-.6 1.1-1.5 1.1-2.7s-.4-2-1.1-2.6c-.7-.6-1.6-.9-2.7-.9-.5 0-1 .1-1.5.2s-.9.4-1.3.7c-.4.3-.6.7-.8 1.1-.2.4-.3.9-.3 1.5-.2.7-.1 1.2.1 1.7zM4.5 125.1c.8.6 1.7.9 2.8.9 1.7 0 2.9-.7 3.7-2.2s1.3-3.6 1.4-6.6l-.1-.1c-.5 1-1.2 1.7-2.2 2.3-.9.6-2 .8-3.1.8-1.2 0-2.2-.2-3.1-.6-.9-.4-1.6-.9-2.3-1.6-.6-.7-1.1-1.5-1.4-2.4-.3-.9-.5-2-.5-3.1s.2-2.1.5-3c.4-.9.9-1.7 1.5-2.3.7-.7 1.5-1.2 2.4-1.5.9-.4 1.9-.5 3-.5s2.1.2 3 .5c.9.3 1.8.9 2.5 1.7.7.8 1.3 1.9 1.7 3.3.4 1.4.6 3.2.6 5.3 0 3.9-.6 6.9-1.9 9-1.2 2.1-3.2 3.2-6 3.2-1.9 0-3.5-.5-4.7-1.4s-2-2.4-2.1-4.4h2.7c.4 1.2.9 2.1 1.6 2.7zm7.2-14.2c-.2-.6-.5-1.2-.9-1.6s-.9-.9-1.5-1.1c-.6-.3-1.2-.4-2-.4s-1.5.1-2.1.4-1 .7-1.4 1.2c-.4.5-.6 1.1-.8 1.7-.2.6-.2 1.3-.2 2 0 .6.1 1.2.3 1.8.2.6.5 1.1.9 1.5.4.4.9.8 1.4 1.1s1.1.4 1.8.4 1.3-.1 1.9-.4 1.1-.6 1.5-1.1c.4-.5.7-1 .9-1.6.2-.6.3-1.2.3-1.9.2-.7.1-1.4-.1-2zM13.6 76V59.8H7.8v-2.2c.8 0 1.5-.1 2.2-.2.7-.1 1.4-.3 2-.7.6-.3 1.1-.8 1.5-1.3.4-.6.7-1.3.8-2.1h2.1V76h-2.8zM21.9 62.3c0-.9.1-1.8.3-2.6.2-.9.4-1.7.7-2.4.3-.8.8-1.4 1.3-2 .6-.6 1.3-1 2.1-1.4s1.9-.5 3-.5c1.2 0 2.2.2 3 .5s1.5.8 2.1 1.4c.6.6 1 1.2 1.3 2 .3.8.6 1.6.7 2.4.2.9.3 1.7.3 2.6s.1 1.8.1 2.6 0 1.7-.1 2.6-.1 1.8-.3 2.6c-.2.9-.4 1.7-.7 2.4s-.8 1.4-1.3 2c-.6.6-1.2 1-2.1 1.4s-1.8.5-3 .5-2.2-.2-3-.5-1.5-.8-2.1-1.4c-.6-.6-1-1.2-1.3-2s-.6-1.6-.7-2.4c-.2-.9-.3-1.7-.3-2.6 0-.9-.1-1.8-.1-2.6.1-.8.1-1.7.1-2.6zm2.9 5.4c.1 1.1.2 2 .5 3 .3.9.8 1.7 1.4 2.4s1.5 1 2.7 1c1.2 0 2-.3 2.7-1s1.1-1.4 1.4-2.4c.3-.9.5-1.9.5-3 .1-1.1.1-2 .1-2.9V63c0-.7-.1-1.3-.2-2s-.2-1.3-.4-2c-.2-.6-.4-1.2-.8-1.7s-.8-.9-1.3-1.2-1.2-.4-2-.4-1.4.1-2 .4c-.5.3-1 .7-1.3 1.2-.4.5-.6 1-.8 1.7-.2.6-.3 1.3-.4 2-.1.7-.1 1.3-.2 2v1.8c.1.9.1 1.9.1 2.9z"
     id="path847"
     style="fill:#a0a0a0;stroke:none" />
  <g
     id="g851">
    <path
       d="M53.5 38.2V21.9h-5.9v-2.2c.8 0 1.5-.1 2.2-.2.7-.1 1.4-.3 2-.7.6-.3 1.1-.8 1.5-1.3.4-.6.7-1.3.8-2.1h2.1v22.7h-2.7zM69.1 38.2V21.9h-5.9v-2.2c.8 0 1.5-.1 2.2-.2.7-.1 1.4-.3 2-.7.6-.3 1.1-.8 1.5-1.3.4-.6.7-1.3.8-2.1h2.1v22.7h-2.7z"
       id="path849"
       style="fill:#a0a0a0;stroke:none" />
  </g>
  <path
     style="fill:#a0a0a0;stroke:none;stroke-width:0.281687"
     d=""
     id="path861" />
  <path
     style="fill:#ecebe4;stroke:none;stroke-width:0;fill-opacity:1;stroke-miterlimit:4;stroke-dasharray:none"
     d="m 208.51012,178.73024 v -2.67602 h -4.94495 -4.94495 l 0.0859,-1.28144 c 0.0767,-1.14518 0.62499,-2.05827 5.15622,-8.58716 4.86145,-7.00471 5.10808,-7.30589 5.98584,-7.31001 l 0.91548,-0.004 v 7.46469 7.4647 h 1.69012 1.69013 v 1.12675 1.12675 h -1.54928 -1.54928 v 2.67602 2.67603 h -1.26759 -1.26759 z m 0.28169,-10.62361 c 0,-4.87536 -0.0564,-5.63479 -0.39219,-5.28163 -0.34586,0.36374 -6.79188,9.71575 -7.32249,10.62361 -0.16059,0.27475 0.66428,0.35211 3.75444,0.35211 h 3.96024 z"
     id="path865" />
  <path
     style="fill:#ecebe4;stroke:none;stroke-width:0.281687;fill-opacity:1"
     d="m 215.71869,128.00599 c -2.38908,-0.87534 -3.79453,-2.67695 -4.21405,-5.40183 l -0.18431,-1.19717 h 1.23492 c 1.21373,0 1.23787,0.0185 1.40739,1.0786 0.2301,1.43896 1.23866,2.89116 2.44032,3.51375 1.52772,0.79153 4.39112,0.56214 5.72993,-0.45902 1.94833,-1.48606 2.42873,-3.76672 1.23924,-5.88314 -0.79224,-1.4096 -1.82254,-1.94781 -4.07476,-2.1286 l -1.77327,-0.14234 v -1.08818 c 0,-1.0832 0.005,-1.08818 1.13579,-1.08818 2.57608,0 4.21321,-1.53465 4.2152,-3.95136 0.001,-1.57867 -0.56537,-2.42797 -2.0785,-3.11511 -2.97445,-1.35074 -5.83876,0.17158 -6.35543,3.37781 -0.15561,0.96561 -0.22052,1.01675 -1.39777,1.10125 l -1.23459,0.0886 0.17636,-1.28668 c 0.52025,-3.79564 3.5025,-6.08032 7.4675,-5.72078 3.55878,0.3227 5.95867,2.57411 5.95867,5.59003 0,1.61705 -0.62114,2.86467 -1.96311,3.94311 l -1.17802,0.94668 1.11379,0.47303 c 1.45775,0.61911 2.53045,2.0663 2.92217,3.94232 0.64897,3.10799 -1.2087,6.38743 -4.19451,7.4048 -1.60954,0.54842 -4.89932,0.54966 -6.39296,0.002 z"
     id="path867" />
  <path
     style="fill:#ecebe4;stroke:none;stroke-width:0.281687;fill-opacity:1"
     d="m 198.24515,75.844157 c 0.2767,-1.597536 1.45412,-4.03932 2.46341,-5.108745 0.49513,-0.524626 2.16783,-1.776016 3.7171,-2.780866 3.05921,-1.984182 4.75059,-3.441515 5.37527,-4.631461 0.21962,-0.418358 0.39931,-1.487966 0.39931,-2.376907 0,-2.718161 -1.63224,-4.327142 -4.38969,-4.327142 -2.40664,0 -3.83659,1.323915 -4.41659,4.0891 l -0.32954,1.571074 -1.13625,-0.08364 -1.13624,-0.08364 0.0692,-1.346804 c 0.12625,-2.457839 1.87171,-4.837912 4.20005,-5.727112 1.85915,-0.710019 5.25865,-0.439236 6.95323,0.553852 2.81285,1.648437 3.71043,5.343254 2.07383,8.536692 -0.83939,1.637872 -2.02767,2.685515 -5.69075,5.017229 -3.43451,2.186222 -5.2112,3.960978 -5.2112,5.205528 0,0.196827 1.93051,0.295675 5.77457,0.295675 h 5.77458 v 1.126747 1.126747 h -7.33662 -7.33662 z"
     id="path869" />
  <path
     style="fill:#ecebe4;stroke:none;stroke-width:0.281687;fill-opacity:1"
     d="M 166.5388,29.858795 V 21.68988 h -2.95772 -2.95771 v -0.985904 c 0,-0.951196 0.0372,-0.985959 1.05633,-0.987475 2.52445,-0.0038 4.9543,-1.530793 5.31636,-3.341055 0.15597,-0.779882 0.28724,-0.882675 1.12722,-0.882675 h 0.9507 v 11.26747 11.26747 h -1.26759 -1.26759 z"
     id="path871" />
  <path
     style="fill:#a0a0a0;stroke:none;stroke-width:0.281687"
     d="m 113.58169,21.700446 c 0,-1.326115 1.03982,-3.751228 2.17915,-5.08227 0.57634,-0.673328 2.44502,-2.135291 4.15262,-3.248809 3.72801,-2.431011 4.51238,-3.137596 5.22444,-4.706326 0.71632,-1.5781069 0.68942,-2.9168981 -0.0864,-4.2968964 -0.77761,-1.3832679 -2.14373,-2.1116299 -3.96169,-2.1122129 -2.40798,-7.722e-4 -4.09809,1.6452593 -4.34678,4.2334177 l -0.13451,1.3998795 h -1.20937 c -1.09086,0 -1.22607,-0.076061 -1.37985,-0.776187 -0.22823,-1.039152 0.43932,-3.1592292 1.38525,-4.3994056 2.65004,-3.47438441 9.42617,-3.29096056 11.71433,0.3170965 1.06251,1.6753984 1.28438,3.2710657 0.72323,5.2013548 -0.70524,2.4259464 -1.71333,3.5246454 -5.5523,6.0513634 -3.78963,2.494242 -5.46391,4.012595 -5.76198,5.225356 l -0.19039,0.774639 h 5.80512 5.80511 v 1.126747 1.126747 h -7.18301 -7.18301 z"
     id="path873" />
  <path
     style="fill:#ecebe4;stroke:none;stroke-width:0.281687;fill-opacity:1"
     d="M 105.69446,14.366024 V 6.1971084 h -2.95771 -2.957714 V 5.3821461 c 0,-0.7777004 0.07947,-0.8289612 1.738214,-1.1211428 2.33846,-0.4119114 3.70679,-1.3536465 4.32719,-2.9781293 C 106.26837,0.17281085 106.44305,0 107.14116,0 h 0.80679 v 11.26747 11.26747 h -1.12675 -1.12674 z"
     id="path875" />
  <path
     style="fill:#ecebe4;stroke:none;stroke-width:0.281687;fill-opacity:1"
     d=""
     id="path877" />
  <path
     style="fill:#ecebe4;stroke:none;stroke-width:0.281687;fill-opacity:1"
     d="m 113.58169,21.700446 c 0,-1.344741 1.11316,-3.937206 2.2171,-5.163432 0.56226,-0.624551 2.44025,-2.073077 4.17331,-3.218947 4.33283,-2.864794 5.73405,-4.5763974 5.71436,-6.9801152 -0.0105,-1.2851254 -1.05928,-2.9157967 -2.27373,-3.5353633 -1.70918,-0.8719581 -3.87488,-0.6757645 -5.08329,0.4605012 -1.05899,0.9957649 -1.6492,2.2945586 -1.6492,3.6291881 0,0.9891692 -0.007,0.9949511 -1.24861,0.9949511 -1.52403,0 -1.77523,-0.4982095 -1.28389,-2.5463324 0.77463,-3.2290215 3.35857,-5.10891918 7.02228,-5.10891918 4.36319,0 6.91306,2.31209148 6.88925,6.24681788 -0.0195,3.21683 -1.17395,4.7966648 -5.66255,7.7488068 -1.82718,1.20173 -3.74492,2.580115 -4.26166,3.063078 -0.9287,0.868013 -1.73651,2.121735 -1.73651,2.69509 0,0.196828 1.93052,0.295676 5.77458,0.295676 h 5.77458 v 1.126747 1.126747 h -7.18301 -7.18301 z"
     id="path879" />
  <path
     style="fill:#ecebe4;stroke:none;stroke-width:0.281687;fill-opacity:1"
     d="M 69.356867,29.858795 V 21.68988 h -2.95771 -2.957711 v -0.985904 c 0,-0.949277 0.03924,-0.986363 1.056325,-0.998268 1.29396,-0.01515 3.006349,-0.601703 3.791891,-1.298865 0.322092,-0.285854 0.826669,-1.05846 1.121282,-1.716903 0.455161,-1.017259 0.660674,-1.197169 1.367538,-1.197169 h 0.831879 v 11.26747 11.26747 h -1.126747 -1.126747 z"
     id="path881" />
  <path
     style="fill:#ecebe4;stroke:none;stroke-width:0.281687;fill-opacity:1"
     d="m 53.425056,29.999639 c 1.33e-4,-4.492904 0.03903,-6.291466 0.08643,-3.996805 0.0474,2.294662 0.04729,5.970674 -2.43e-4,8.168916 -0.04754,2.198242 -0.08632,0.320792 -0.08618,-4.172111 z"
     id="path883" />
  <path
     style="fill:#ecebe4;stroke:none;stroke-width:0.281687;fill-opacity:1"
     d="M 53.58241,29.858795 V 21.68988 h -2.957711 -2.957711 v -0.985904 c 0,-0.971664 0.01729,-0.985943 1.197169,-0.988656 0.65979,-0.0015 1.834635,-0.299594 2.617313,-0.664056 1.452169,-0.676218 2.214739,-1.523907 2.541276,-2.824936 0.153076,-0.609904 0.345154,-0.733557 1.139478,-0.733557 h 0.955366 v 11.26747 11.26747 H 54.85 53.58241 Z"
     id="path885" />
  <path
     style="fill:#a0a0a0;stroke:none;stroke-width:0.281687"
     d="m 27.014581,75.951025 c -1.780452,-0.500544 -3.3984,-2.090382 -4.18208,-4.10942 -0.85083,-2.192042 -1.091468,-9.701143 -0.397671,-12.4093 0.944456,-3.686572 2.783273,-5.505287 5.890359,-5.825967 3.774441,-0.389557 6.615546,1.460199 7.656153,4.984685 0.742812,2.515869 0.783716,10.069345 0.06722,12.412009 -0.62408,2.040482 -1.895813,3.767059 -3.303725,4.485322 -1.461499,0.745601 -3.995958,0.950238 -5.730251,0.462671 z m 4.820872,-2.456121 c 0.353669,-0.218456 0.986541,-1.094368 1.406381,-1.94647 0.741904,-1.505758 0.763347,-1.687747 0.763347,-6.478795 0,-5.345528 -0.24287,-6.732351 -1.425061,-8.137305 -1.506079,-1.789873 -4.598684,-1.868994 -6.211496,-0.158915 -1.318371,1.397881 -1.661199,3.154138 -1.646946,8.437063 0.01098,4.069883 0.07466,4.647725 0.65656,5.958128 0.354421,0.798127 0.948298,1.736637 1.319727,2.085576 1.155826,1.085842 3.585006,1.199662 5.137488,0.240718 z"
     id="path887" />
  <path
     style="fill:#ecebe4;stroke:none;stroke-width:0.281687;fill-opacity:1"
     d="m 27.014581,75.951025 c -1.780452,-0.500544 -3.3984,-2.090382 -4.18208,-4.10942 -0.85083,-2.192042 -1.091468,-9.701143 -0.397671,-12.4093 0.944456,-3.686572 2.783273,-5.505287 5.890359,-5.825967 3.774441,-0.389557 6.615546,1.460199 7.656153,4.984685 0.742812,2.515869 0.783716,10.069345 0.06722,12.412009 -0.62408,2.040482 -1.895813,3.767059 -3.303725,4.485322 -1.461499,0.745601 -3.995958,0.950238 -5.730251,0.462671 z m 4.97984,-2.716057 c 1.554158,-1.364569 1.947835,-2.697713 2.089478,-7.075785 0.203229,-6.281682 -0.543455,-9.038242 -2.760357,-10.19051 -1.167345,-0.606745 -3.232198,-0.485576 -4.36413,0.256095 -1.739781,1.139948 -2.548636,4.674341 -2.317412,10.126216 0.162983,3.842853 0.79119,5.816439 2.239266,7.034915 0.676964,0.569627 1.133697,0.697715 2.487894,0.697715 1.442891,0 1.784466,-0.110417 2.625261,-0.848646 z"
     id="path889" />
  <path
     style="fill:#ecebe4;stroke:none;stroke-width:0.281687;fill-opacity:1"
     d="M 13.864578,67.745663 V 59.71759 H 10.906867 7.9491566 v -0.95947 c 0,-0.944174 0.023578,-0.962672 1.4788554,-1.16022 2.545472,-0.34554 4.257286,-1.563199 4.841123,-3.443623 0.153985,-0.495958 0.407066,-0.633795 1.163703,-0.633795 h 0.966921 v 11.126626 11.126627 h -1.26759 -1.267591 z"
     id="path891" />
  <path
     style="fill:#ecebe4;stroke:none;stroke-width:0.281687;fill-opacity:1"
     d="m 5.2242317,127.8814 c -2.3875287,-0.48858 -4.0312669,-1.87823 -4.5865345,-3.87756 -0.41201355,-1.48352 -0.42038226,-1.47011 0.9173771,-1.47011 1.158946,0 1.2384816,0.0556 1.8348361,1.2831 1.0492595,2.15969 3.4967061,2.91262 5.9089294,1.81782 0.9899592,-0.4493 1.3338462,-0.82169 1.8992302,-2.05665 0.763655,-1.66804 1.258075,-3.89 1.258075,-5.65388 v -1.15248 l -0.872307,1.05826 c -1.8354369,2.2267 -4.8969163,2.8215 -7.7306503,1.50194 -5.2160614,-2.42892 -5.397414,-10.50518 -0.2968458,-13.21957 1.6568798,-0.88175 5.4427308,-0.87949 7.1038271,0.004 2.686532,1.42928 3.77919,3.93093 3.971754,9.09337 0.243677,6.53271 -1.392609,10.90757 -4.577351,12.23824 -1.2482184,0.52154 -3.4388371,0.71804 -4.8303403,0.43328 z m 4.6876314,-10.69323 c 1.1828189,-0.84224 1.9747859,-2.63747 2.0097309,-4.55564 0.03496,-1.91924 -0.29305,-2.73537 -1.539094,-3.82941 -1.7079014,-1.49956 -4.9050964,-1.49792 -6.3153611,0.003 -1.255446,1.33636 -1.752531,3.82577 -1.177414,5.89651 0.2809794,1.01168 1.7591901,2.68582 2.7435365,3.10718 0.9490613,0.40626 3.318331,0.0619 4.2786017,-0.62188 z"
     id="path895" />
  <path
     style="fill:#ecebe4;stroke:none;stroke-width:0.281687;fill-opacity:1"
     d="m 18.748956,181.30213 c -2.671704,-0.87744 -4.265489,-2.91977 -4.526724,-5.80071 -0.208096,-2.29493 0.748718,-4.31792 2.593871,-5.48423 l 1.280991,-0.80971 -0.809636,-0.49237 c -1.068207,-0.64961 -1.882239,-1.8279 -2.277865,-3.29715 -1.253274,-4.6543 4.943354,-8.13547 10.07062,-5.65751 2.599969,1.25654 3.685835,4.85006 2.220905,7.34977 -0.392674,0.67005 -1.041354,1.39349 -1.441511,1.60765 -0.894515,0.47873 -0.920675,0.76102 -0.09376,1.01179 1.767426,0.53598 3.098555,2.83104 3.098555,5.34235 0,2.59427 -1.249335,4.63419 -3.568437,5.82656 -1.418832,0.7295 -4.90099,0.94414 -6.547005,0.40356 z m 5.658095,-2.38664 c 1.233833,-0.70987 2.215495,-2.73011 1.999956,-4.11586 -0.213538,-1.37288 -1.035836,-2.74527 -2.054558,-3.429 -1.145843,-0.76906 -4.530166,-0.73687 -5.5897,0.0532 -1.513693,1.12867 -1.94046,1.99171 -1.94046,3.92417 0,1.51826 0.106111,1.90104 0.704217,2.54039 0.820309,0.87687 1.502785,1.27898 2.676024,1.57667 1.154092,0.29284 3.206698,0.0246 4.204521,-0.54953 z m -1.144215,-10.85521 c 1.490545,-0.62279 2.150899,-1.69136 2.150899,-3.48053 0,-1.37518 -0.102205,-1.64167 -0.957735,-2.4972 -0.96033,-0.96033 -1.529646,-1.10835 -3.688723,-0.95911 -2.072068,0.14324 -3.240771,1.59427 -3.240771,4.02367 0,2.50785 3.027109,4.04515 5.73633,2.91317 z"
     id="path897" />
  <path
     style="fill:#ecebe4;stroke:none;stroke-width:0.281687;fill-opacity:1"
     d="m 56.485009,199.50555 c 1.673893,-0.0499 4.335833,-0.0497 5.915421,4.2e-4 1.579589,0.0501 0.21004,0.0909 -3.043442,0.0907 -3.253482,-2.3e-4 -4.545873,-0.0412 -2.871979,-0.0911 z"
     id="path899" />
  <path
     style="fill:#ecebe4;stroke:none;stroke-width:0.281687;fill-opacity:1"
     d="m 56.680964,218.06166 c 0,-4.26567 3.943465,-13.07265 7.657792,-17.10222 0.586738,-0.63654 0.984023,-1.24011 0.882856,-1.34128 -0.101168,-0.10117 -2.761375,-0.18394 -5.911572,-0.18394 h -5.72763 v -1.12675 -1.12675 h 7.183012 7.183012 v 1.01724 c 0,0.76381 -0.268643,1.34276 -1.078341,2.32391 -3.590326,4.35059 -6.212112,10.15442 -7.23386,16.01356 -0.231049,1.32493 -0.420088,2.45574 -0.420088,2.51291 0,0.0572 -0.570416,0.10395 -1.267591,0.10395 h -1.26759 z"
     id="path901" />
  <path
     style="fill:#ecebe4;stroke:none;stroke-width:0.281687;fill-opacity:1"
     d="m 110.65651,233.10359 c -1.46946,-0.52375 -3.10514,-2.17569 -3.83564,-3.87378 -1.49518,-3.47564 -1.37479,-10.14831 0.24535,-13.59861 1.42156,-3.02739 3.26643,-4.37013 6.30288,-4.58739 3.29806,-0.23597 5.72686,1.24032 6.55216,3.98259 l 0.39396,1.30902 -1.18369,-7.6e-4 c -1.07247,-6.9e-4 -1.23664,-0.0978 -1.74707,-1.0335 -0.85682,-1.57067 -1.81657,-2.14477 -3.58549,-2.14477 -3.32835,0 -4.99411,2.10185 -5.43971,6.86384 l -0.19556,2.08977 0.94845,-1.01347 c 1.4633,-1.56362 2.62227,-2.05163 4.89207,-2.05993 2.40206,-0.009 4.00698,0.76143 5.40165,2.59229 1.16782,1.53308 1.59856,3.12551 1.42767,5.27807 -0.31903,4.01863 -3.1657,6.60659 -7.25185,6.5928 -1.00703,-0.003 -2.32337,-0.18167 -2.92518,-0.39617 z m 4.52654,-1.85753 c 1.89733,-0.71888 2.93172,-2.39293 2.94306,-4.76302 0.0118,-2.46241 -0.75623,-3.98446 -2.41593,-4.7879 -2.38003,-1.15215 -4.79556,-0.50646 -6.28337,1.67959 -1.1398,1.6747 -0.76155,5.54495 0.66596,6.81426 1.44733,1.28693 3.40864,1.69422 5.09028,1.05707 z"
     id="path903" />
  <path
     style="fill:#ecebe4;stroke:none;stroke-width:0.281687;fill-opacity:1"
     d="m 162.36093,218.70064 c -1.57253,-0.78362 -2.58929,-1.91704 -3.10709,-3.46358 -0.52524,-1.56875 -0.44578,-1.71851 0.91179,-1.71851 1.12192,0 1.2464,0.0701 1.38881,0.78212 0.3752,1.87603 2.28351,3.1615 4.69334,3.1615 1.54929,0 2.28754,-0.27209 3.34374,-1.23237 1.53048,-1.39148 1.93889,-4.63083 0.86383,-6.85159 -1.42799,-2.94985 -5.70721,-3.54631 -8.32099,-1.15983 -0.40975,0.37411 -0.90897,0.52084 -1.56507,0.46 l -0.9634,-0.0893 1.00027,-5.70416 1.00028,-5.70416 h 5.42389 5.42389 v 1.12675 1.12675 h -4.45623 -4.45623 l -0.60394,3.29653 c -0.33217,1.8131 -0.54465,3.35584 -0.47218,3.4283 0.0725,0.0725 0.42013,-0.13914 0.77258,-0.47025 0.98765,-0.92785 3.24606,-1.34911 5.05836,-0.94353 3.53531,0.79116 5.52518,3.36779 5.55371,7.19133 0.0165,2.21332 -0.43781,3.60179 -1.6369,5.00266 -1.48463,1.73445 -3.33437,2.48859 -6.11224,2.49196 -1.88272,0.002 -2.51893,-0.12198 -3.74022,-0.73058 z"
     id="path905" />
</svg>
